<svg width="30" height="30" viewBox="0 0 30 30" fill="none" xmlns="http://www.w3.org/2000/svg">
    <path
        d="M3.25 29.25C2.35625 29.25 1.59115 28.9318 0.954687 28.2953C0.318229 27.6589 0 26.8937 0 26V3.25C0 2.35625 0.318229 1.59115 0.954687 0.954687C1.59115 0.318229 2.35625 0 3.25 0H26C26.8937 0 27.6589 0.318229 28.2953 0.954687C28.9318 1.59115 29.25 2.35625 29.25 3.25V26C29.25 26.8937 28.9318 27.6589 28.2953 28.2953C27.6589 28.9318 26.8937 29.25 26 29.25H3.25ZM6.5 22.75H17.875V19.5H6.5V22.75ZM6.5 16.25H22.75V13H6.5V16.25ZM6.5 9.75H22.75V6.5H6.5V9.75Z"
        fill="#0033A0" />
</svg>