<svg width="33" height="33" viewBox="0 0 33 33" fill="none" xmlns="http://www.w3.org/2000/svg">
    <path
        d="M9.75 11.375V8.125H24.375V11.375H9.75ZM9.75 16.25V13H24.375V16.25H9.75ZM17.875 32.5V27.5031L26.8531 18.5656C27.0969 18.3219 27.3677 18.1458 27.6656 18.0375C27.9635 17.9292 28.2615 17.875 28.5594 17.875C28.8844 17.875 29.1958 17.9359 29.4937 18.0578C29.7917 18.1797 30.0625 18.3625 30.3062 18.6062L31.8094 20.1094C32.026 20.3531 32.1953 20.624 32.3172 20.9219C32.4391 21.2198 32.5 21.5177 32.5 21.8156C32.5 22.1135 32.4458 22.4182 32.3375 22.7297C32.2292 23.0411 32.0531 23.3187 31.8094 23.5625L22.8719 32.5H17.875ZM28.5594 23.4L30.0625 21.8156L28.5594 20.3125L27.0156 21.8562L28.5594 23.4ZM4.875 32.5C3.52083 32.5 2.36979 32.026 1.42188 31.0781C0.473958 30.1302 0 28.9792 0 27.625V22.75H4.875V0H29.25V14.6656C28.7083 14.6115 28.1599 14.6318 27.6047 14.7266C27.0495 14.8214 26.5146 14.9906 26 15.2344V3.25H8.125V22.75H17.875L14.625 26V32.5H4.875Z"
        fill="#0033A0" />
</svg>