<svg width="176" height="57" viewBox="0 0 176 57" fill="none" xmlns="http://www.w3.org/2000/svg">
    <path fill-rule="evenodd" clip-rule="evenodd"
        d="M66.3015 52.8499C64.8394 52.8499 63.7759 51.8523 63.7759 50.4157V45.5938H64.5487V50.3525C64.5487 51.4434 65.2479 52.1612 66.3015 52.1612C67.365 52.1612 68.0678 51.4434 68.0678 50.3525V45.5938H68.8407V50.4157C68.8407 51.8523 67.7736 52.8499 66.3015 52.8499Z"
        fill="#00AEC7" />
    <path fill-rule="evenodd" clip-rule="evenodd"
        d="M73.913 52.7906V49.7212C73.913 48.8453 73.4335 48.402 72.6774 48.402C71.928 48.402 71.4375 48.8548 71.4375 49.7212V52.7906H70.7017V47.8125H71.4375V48.3578C71.7958 47.9567 72.288 47.7568 72.8454 47.7568C73.387 47.7568 73.823 47.9149 74.1288 48.2195C74.4879 48.56 74.6476 49.0322 74.6476 49.6046V52.7906H73.913Z"
        fill="#00AEC7" />
    <path fill-rule="evenodd" clip-rule="evenodd"
        d="M79.2712 50.4929H77.8645C77.1147 50.4929 76.7444 50.7991 76.7444 51.3763C76.7444 51.9504 77.104 52.2257 77.8955 52.2257C78.324 52.2257 78.7018 52.1945 79.0208 51.8899C79.1928 51.7315 79.2712 51.4447 79.2712 51.033V50.4929ZM79.2697 52.7921V52.3152C78.8667 52.7194 78.5028 52.8505 77.8247 52.8505C77.1343 52.8505 76.7249 52.7194 76.4104 52.3954C76.1687 52.1544 76.0337 51.7795 76.0337 51.3875C76.0337 50.5184 76.6421 49.9467 77.7594 49.9467H79.2697V49.4793C79.2697 48.7464 78.9049 48.379 77.9903 48.379C77.3449 48.379 77.02 48.535 76.7249 48.9511L76.2256 48.4936C76.6736 47.9163 77.1856 47.7583 77.9975 47.7583C79.3382 47.7583 80.0047 48.3331 80.0047 49.4137V52.7921H79.2697Z"
        fill="#00AEC7" />
    <path fill-rule="evenodd" clip-rule="evenodd"
        d="M87.2818 49.1211C87.0907 48.6636 86.6427 48.3716 86.1044 48.3716C85.5812 48.3716 85.1333 48.6636 84.9354 49.1211C84.8259 49.3933 84.8004 49.547 84.7884 49.9464H87.4343C87.4084 49.547 87.3929 49.3933 87.2818 49.1211ZM84.7888 50.4923C84.7888 51.5898 85.3052 52.2129 86.2648 52.2129C86.8406 52.2129 87.1786 52.0426 87.5776 51.6459L88.0745 52.086C87.5645 52.5874 87.097 52.8501 86.2425 52.8501C84.9158 52.8501 84.0518 52.0616 84.0518 50.3019C84.0518 48.6978 84.8342 47.7583 86.1048 47.7583C87.4036 47.7583 88.1657 48.6856 88.1657 50.1608V50.4923H84.7888Z"
        fill="#00AEC7" />
    <path fill-rule="evenodd" clip-rule="evenodd"
        d="M96.1661 52.7906V49.7212C96.1661 48.8453 95.6878 48.402 94.9333 48.402C94.2007 48.402 93.6798 48.8548 93.6798 49.6457V52.7906H92.9488V49.7212C92.9488 48.8453 92.4706 48.402 91.7144 48.402C90.9619 48.402 90.461 48.8548 90.461 49.7212V52.7906H89.7275V47.8125H90.461V48.3578C90.8217 47.9567 91.3194 47.7568 91.8765 47.7568C92.5733 47.7568 93.1104 48.037 93.4162 48.5822C93.8013 48.037 94.3635 47.7568 95.0671 47.7568C95.603 47.7568 96.0581 47.9267 96.3659 48.2195C96.7183 48.56 96.9019 49.0322 96.9019 49.6046V52.7906H96.1661Z"
        fill="#00AEC7" />
    <path fill-rule="evenodd" clip-rule="evenodd"
        d="M100.685 48.4018C99.5905 48.4018 99.424 49.3294 99.424 50.3006C99.424 51.2721 99.5905 52.2037 100.685 52.2037C101.771 52.2037 101.937 51.2721 101.937 50.3006C101.937 49.3294 101.771 48.4018 100.685 48.4018ZM102.058 52.4161C101.795 52.6788 101.347 52.8491 100.835 52.8491C100.287 52.8491 99.8263 52.7179 99.4226 52.2039V55.0129H98.6899V47.8129H99.4226V48.402C99.8263 47.8762 100.287 47.7568 100.835 47.7568C101.347 47.7568 101.795 47.9271 102.058 48.1875C102.57 48.6963 102.673 49.5268 102.673 50.3008C102.673 51.0819 102.57 51.91 102.058 52.4161Z"
        fill="#00AEC7" />
    <path fill-rule="evenodd" clip-rule="evenodd"
        d="M107.041 48.7647C106.766 48.4925 106.562 48.402 106.178 48.402C105.442 48.402 104.976 48.9792 104.976 49.7362V52.7906H104.24V47.8129H104.976V48.4214C105.25 48.0101 105.799 47.7568 106.38 47.7568C106.854 47.7568 107.225 47.8639 107.583 48.2195L107.041 48.7647Z"
        fill="#00AEC7" />
    <path fill-rule="evenodd" clip-rule="evenodd"
        d="M111.134 49.1211C110.936 48.6636 110.488 48.3716 109.958 48.3716C109.427 48.3716 108.979 48.6636 108.787 49.1211C108.68 49.3933 108.653 49.547 108.636 49.9464H111.287C111.263 49.547 111.244 49.3933 111.134 49.1211ZM108.636 50.4923C108.636 51.5898 109.151 52.2129 110.112 52.2129C110.693 52.2129 111.031 52.0426 111.427 51.6459L111.926 52.086C111.416 52.5874 110.947 52.8501 110.094 52.8501C108.767 52.8501 107.905 52.0616 107.905 50.3019C107.905 48.6978 108.687 47.7583 109.958 47.7583C111.256 47.7583 112.019 48.6856 112.019 50.1608V50.4923H108.636Z"
        fill="#00AEC7" />
    <path fill-rule="evenodd" clip-rule="evenodd"
        d="M115.159 52.8491C114.316 52.8491 113.651 52.6547 113.102 52.1355L113.591 51.6445C113.989 52.0605 114.526 52.2237 115.145 52.2237C115.978 52.2237 116.483 51.9317 116.483 51.3426C116.483 50.9092 116.228 50.6682 115.652 50.6153L114.821 50.5489C113.848 50.4663 113.325 50.0278 113.325 49.208C113.325 48.3021 114.097 47.7568 115.172 47.7568C115.882 47.7568 116.528 47.9271 116.975 48.2898L116.495 48.7647C116.138 48.4925 115.678 48.3704 115.159 48.3704C114.426 48.3704 114.041 48.6845 114.041 49.1882C114.041 49.6141 114.283 49.8697 114.915 49.9239L115.724 49.9891C116.598 50.0701 117.198 50.4031 117.198 51.3351C117.198 52.2948 116.368 52.8491 115.159 52.8491Z"
        fill="#00AEC7" />
    <path fill-rule="evenodd" clip-rule="evenodd"
        d="M121.477 50.4929H120.071C119.315 50.4929 118.951 50.7991 118.951 51.3763C118.951 51.9504 119.308 52.2257 120.1 52.2257C120.529 52.2257 120.907 52.1945 121.22 51.8899C121.393 51.7315 121.477 51.4447 121.477 51.033V50.4929ZM121.477 52.7921V52.3152C121.068 52.7194 120.702 52.8505 120.029 52.8505C119.333 52.8505 118.931 52.7194 118.611 52.3954C118.367 52.1544 118.234 51.7795 118.234 51.3875C118.234 50.5184 118.848 49.9467 119.968 49.9467H121.477V49.4793C121.477 48.7464 121.106 48.379 120.191 48.379C119.55 48.379 119.225 48.535 118.931 48.9511L118.427 48.4936C118.879 47.9163 119.386 47.7583 120.203 47.7583C121.548 47.7583 122.205 48.3331 122.205 49.4137V52.7921H121.477Z"
        fill="#00AEC7" />
    <path fill-rule="evenodd" clip-rule="evenodd"
        d="M133.775 47.996L131.783 47.4508C131.232 47.2999 130.729 47.0616 130.729 46.3971C130.729 45.7006 131.156 45.3699 132.046 45.3699H133.819C134.607 45.3699 135.539 45.1071 135.539 43.8389L132.193 43.8437C130.136 43.846 128.959 44.878 128.959 46.358C128.959 47.7309 129.843 48.5029 131.413 48.9161L133.153 49.376C133.87 49.5637 134.126 50.0117 134.126 50.4716C134.126 51.1677 133.685 51.5893 132.603 51.594L129.27 51.6229V53.123H132.654C134.717 53.123 135.898 52.0223 135.898 50.5763C135.898 49.1279 135.319 48.4128 133.775 47.996ZM159 45.3296H157.123C157.02 45.3386 156.915 45.3438 156.8 45.3438C155.377 45.3438 154.303 46.3149 154.237 48.5424C154.17 50.8595 155.201 51.8133 156.646 51.8133C158.26 51.8133 159 50.5917 159 49.3116V45.3296ZM157.143 43.8389H160.761V45.1652V53.1229C159.733 53.1229 159.217 52.8326 159.097 51.8808C159.097 51.8808 158.377 53.2976 156.328 53.2976C153.829 53.2976 152.349 51.3356 152.435 48.5222C152.521 45.4279 154.564 43.8436 156.731 43.8436H157.143V43.8389ZM150.157 43.8389C148.131 43.8389 146.74 45.002 146.74 47.3903V53.1229H148.372V47.3314C148.372 46.1047 149.041 45.3698 150.296 45.3698H150.776C152.211 45.3698 152.448 44.6393 152.448 43.8389H150.157ZM144.539 45.6665L144.543 50.6691C144.551 52.3948 142.805 53.2438 141.039 53.2438C139.212 53.2438 137.65 52.3948 137.65 50.6691V43.8389C138.408 43.8389 139.271 44.0866 139.278 45.4623L139.288 50.2768C139.288 51.2143 140.004 51.684 141.09 51.684C142.12 51.684 142.905 51.2143 142.905 50.2768L142.903 43.8389C144.034 43.8389 144.539 44.3205 144.539 45.6665Z"
        fill="#0033A0" />
    <mask id="mask0_1204_18147" style="mask-type:luminance" maskUnits="userSpaceOnUse" x="162"
        y="39" width="14" height="18">
        <path fill-rule="evenodd" clip-rule="evenodd"
            d="M162.511 39.9438H176V56.4343H162.511V39.9438Z" fill="white" />
    </mask>
    <g mask="url(#mask0_1204_18147)">
        <path fill-rule="evenodd" clip-rule="evenodd"
            d="M171.998 50.9428C171.448 51.2719 170.758 51.6492 170.4 51.8684C170.364 51.8945 170.326 51.8945 170.343 52.002C170.343 52.002 170.364 52.1071 170.368 52.2284C170.404 52.7566 170.624 52.7005 170.938 52.4619L170.982 52.431C172.084 51.5346 174.13 49.8377 174.585 49.4683C174.591 49.4312 174.585 49.4169 174.557 49.4142C174.122 49.6749 172.975 50.3636 171.998 50.9428ZM173.026 51.6819C172.417 52.1781 171.499 52.9687 170.54 53.7719C170.449 53.843 170.414 53.9766 170.37 54.1374C170.312 54.4096 170.174 54.7632 170.174 54.7632C170.148 54.8406 170.181 54.8699 170.263 54.7944C171 54.0086 172.634 52.2291 173.079 51.7274C173.086 51.693 173.075 51.674 173.059 51.674L173.026 51.6819ZM175.076 48.5283C174.68 48.6424 173.183 49.0197 171.858 49.3437C170.709 49.6353 169.42 49.9766 169.42 49.9766C169.282 50.0106 169.335 50.0695 169.349 50.0809C169.373 50.1398 169.457 50.2516 169.539 50.4025C169.739 50.7407 170.023 50.6945 170.278 50.6147C170.319 50.602 174.9 48.7278 175.109 48.5816C175.142 48.5721 175.123 48.5551 175.12 48.5429C175.113 48.5259 175.092 48.5283 175.076 48.5283ZM173.901 47.8927C173.032 47.8927 171.961 47.8927 170.954 47.886C169.602 47.886 167.469 47.8927 167.469 47.8927C167.46 47.8927 167.438 47.8974 167.431 47.9124C167.417 47.9294 167.417 47.9441 167.431 47.9563C167.461 48.0488 167.581 48.2728 167.722 48.4189C167.98 48.6959 168.275 48.835 168.58 48.8717C168.614 48.8788 168.65 48.8788 168.687 48.8788C168.723 48.8788 168.755 48.8717 168.802 48.8666C168.842 48.8642 175.212 48.0002 175.559 47.9492C175.575 47.9441 175.59 47.9318 175.59 47.9148C175.59 47.9006 175.575 47.886 175.556 47.886C175.261 47.8927 174.66 47.8927 173.901 47.8927ZM175.968 47.3288C175.157 47.1728 165.285 45.3933 165.285 45.3933C165.264 45.3882 165.24 45.4055 165.231 45.4131C165.219 45.4304 165.228 45.4565 165.231 45.4763C165.387 45.98 165.778 46.496 166.437 46.7006C166.51 46.722 166.576 46.7322 166.649 46.7346C166.649 46.7346 175.026 47.3185 175.962 47.3818C175.983 47.3818 176.001 47.3727 176.001 47.3557C176.001 47.3462 175.986 47.3288 175.968 47.3288ZM165.22 41.2698C165.341 41.4254 165.458 41.5258 165.68 41.6597C165.756 41.6984 165.826 41.7545 165.917 41.796L166.474 42.0856C166.798 42.2413 171.516 44.449 172.205 44.7876C173.02 45.1914 173.837 45.5809 174.197 45.754C174.23 45.7658 174.247 45.754 174.236 45.7152C173.357 45.1696 169.981 43.037 167.577 41.5424L165.848 40.5005L165.533 40.3085L164.944 39.9553C164.911 39.9387 164.896 39.9407 164.889 39.9533C164.864 39.9581 164.861 39.9727 164.861 39.9873C164.855 40.0604 164.845 40.5053 164.98 40.8439C165.044 40.9924 165.12 41.1485 165.22 41.2698ZM164.942 43.6673C165.177 43.9135 165.472 44.096 165.838 44.2106L165.869 44.2201C165.973 44.2465 172.087 45.8699 173.702 46.3112C174.408 46.5037 174.974 46.6641 175.233 46.7344C175.264 46.7344 175.28 46.7249 175.28 46.7075C175.28 46.7004 175.277 46.6862 175.262 46.6739C174.235 46.2619 167.943 43.838 165.561 42.925L164.566 42.5331C164.53 42.5283 164.516 42.5307 164.509 42.5425C164.495 42.5572 164.494 42.5745 164.494 42.5745C164.501 42.6646 164.55 43.1174 164.753 43.4315C164.817 43.5141 164.873 43.599 164.942 43.6673ZM169.388 54.9499C168.602 55.7045 167.444 56.128 167.059 56.2477C167.035 56.2497 167.022 56.2718 167.022 56.2841C167.022 56.3078 167.035 56.3271 167.048 56.3326C167.108 56.3639 167.575 56.6171 168.46 56.1794C168.959 55.9257 169.217 55.5263 169.441 54.9842C169.453 54.9546 169.435 54.9376 169.42 54.9376C169.408 54.9352 169.394 54.9376 169.388 54.9499ZM169.524 53.3534C169.538 53.3167 169.528 53.2997 169.508 53.2946C168.584 53.6521 166.576 54.0081 165.32 54.1859C164.239 54.3419 163.313 54.368 162.794 54.4L162.56 54.419C162.536 54.4249 162.515 54.4387 162.515 54.4581C162.504 54.4775 162.521 54.4921 162.536 54.5043C162.626 54.6118 162.93 54.8962 163.538 54.9812C164.239 55.0835 165.282 54.9109 166.576 54.5407C167.667 54.2369 168.909 53.711 169.524 53.3534ZM167.291 54.9819C166.33 55.3055 165.3 55.5813 164.18 55.7658C164.151 55.7658 164.136 55.7832 164.136 55.8053C164.136 55.8195 164.136 55.8317 164.145 55.8416C164.335 55.9898 164.567 56.0751 164.86 56.1119C165.226 56.1482 165.661 56.1063 166.163 55.9756C166.609 55.8582 167.034 55.6662 167.518 55.4394C167.977 55.2206 168.421 54.9653 168.791 54.7054C169.17 54.4343 169.46 54.172 169.633 53.9429C169.645 53.9085 169.63 53.897 169.614 53.8891C169.032 54.2862 168.24 54.6611 167.291 54.9819Z"
            fill="#00AEC7" />
    </g>
    <path fill-rule="evenodd" clip-rule="evenodd"
        d="M66.4413 28.7624C62.3126 28.7624 59.1575 27.6206 56.993 25.3421C54.8305 23.0582 53.7471 19.8165 53.7471 15.6235C53.7471 13.5343 54.0855 11.6683 54.7393 10.0354C55.3943 8.39857 56.3081 7.01025 57.4513 5.87754C58.5973 4.75195 59.9686 3.89975 61.5629 3.3095C63.1524 2.74018 64.8745 2.44189 66.7352 2.44189C67.8103 2.44189 68.7878 2.5221 69.6674 2.67894C70.5469 2.83619 71.3182 3.01635 71.9832 3.21942C72.637 3.42881 73.1924 3.6469 73.6328 3.86657C74.0792 4.08742 74.3933 4.24545 74.5908 4.36832L72.9352 8.96315C72.1536 8.54317 71.2358 8.19392 70.1969 7.90432C69.1641 7.61591 67.9827 7.46697 66.6583 7.46697C65.7816 7.46697 64.9155 7.61591 64.0702 7.90432C63.2265 8.19392 62.4783 8.65972 61.8368 9.30608C61.1854 9.94177 60.6666 10.7821 60.2768 11.7939C59.8901 12.8255 59.6871 14.0609 59.6871 15.5085C59.6871 16.6831 59.8224 17.7585 60.0729 18.7723C60.3365 19.7813 60.7422 20.6493 61.3204 21.3696C61.8942 22.1028 62.6475 22.6805 63.5749 23.1056C64.5034 23.5303 65.6342 23.7476 66.9526 23.7476C67.7892 23.7476 68.523 23.6958 69.1911 23.5943C69.8537 23.4971 70.4426 23.3817 70.9575 23.2454C71.4691 23.1162 71.9202 22.9633 72.3117 22.7859C72.7051 22.6255 73.055 22.4687 73.3764 22.3201L74.9551 26.8735C74.1457 27.3598 73.0109 27.7948 71.5416 28.1832C70.0747 28.5723 68.3769 28.7624 66.4413 28.7624Z"
        fill="#0033A0" />
    <path fill-rule="evenodd" clip-rule="evenodd"
        d="M85.9978 24.4678C86.5322 24.4678 87.0454 24.4543 87.5308 24.4295C88.0221 24.4057 88.4155 24.3773 88.7126 24.318V20.2107C88.4896 20.1594 88.1623 20.1096 87.7195 20.0594C87.2855 20.0152 86.8734 19.9848 86.5111 19.9848C85.9978 19.9848 85.514 20.0152 85.0537 20.0827C84.605 20.1408 84.2092 20.2554 83.8692 20.4269C83.5207 20.5975 83.2532 20.8275 83.0636 21.1175C82.8661 21.4138 82.7642 21.7753 82.7642 22.2071C82.7642 23.0573 83.0497 23.6503 83.6298 23.9739C84.206 24.301 84.9976 24.4678 85.9978 24.4678ZM85.5564 8.59033C87.1786 8.59033 88.5176 8.77484 89.5895 9.1395C90.6658 9.50653 91.5326 10.0213 92.1789 10.7028C92.8267 11.3887 93.291 12.2133 93.5558 13.1776C93.8237 14.1551 93.9615 15.2313 93.9615 16.4256V27.7065C93.1775 27.8748 92.0897 28.0778 90.7 28.3078C89.2977 28.5409 87.6118 28.6551 85.6325 28.6551C84.3814 28.6551 83.2474 28.5429 82.2348 28.324C81.2183 28.1146 80.3443 27.7511 79.614 27.2517C78.8838 26.7575 78.3199 26.1044 77.9241 25.3051C77.5311 24.5035 77.3408 23.5202 77.3408 22.3578C77.3408 21.2381 77.5554 20.2935 78.0157 19.5148C78.4621 18.7432 79.0749 18.1245 79.8342 17.6539C80.5915 17.1953 81.4639 16.8685 82.4423 16.6591C83.4186 16.4549 84.4331 16.3553 85.4839 16.3553C86.1923 16.3553 86.8246 16.3877 87.3729 16.443C87.9236 16.4967 88.3643 16.5817 88.7135 16.6828V16.1665C88.7135 15.2439 88.4304 14.5039 87.8698 13.9413C87.3036 13.3914 86.3269 13.1081 84.9301 13.1081C84.0047 13.1081 83.0809 13.1777 82.1803 13.3096C81.2768 13.4428 80.4968 13.6296 79.8342 13.8698L79.1334 9.50653C79.4543 9.40934 79.8497 9.30583 80.3287 9.19995C80.8062 9.08656 81.3226 8.98581 81.8896 8.89968C82.4478 8.81711 83.0459 8.74639 83.6686 8.6891C84.2854 8.62312 84.9185 8.59033 85.5564 8.59033Z"
        fill="#0033A0" />
    <path fill-rule="evenodd" clip-rule="evenodd"
        d="M111.28 18.8249C111.28 17.1514 110.902 15.8112 110.14 14.8022C109.386 13.7991 108.253 13.2906 106.772 13.2906C106.278 13.2906 105.823 13.3084 105.407 13.3451C104.99 13.3866 104.648 13.4257 104.376 13.4716V23.2617C104.72 23.4897 105.166 23.6639 105.717 23.8149C106.275 23.9583 106.827 24.0278 107.393 24.0278C109.984 24.0278 111.28 22.3009 111.28 18.8249ZM116.859 18.6766C116.859 20.159 116.676 21.5038 116.308 22.7242C115.933 23.9368 115.401 24.9735 114.685 25.8509C113.977 26.7213 113.101 27.402 112.048 27.8896C110.998 28.3731 109.787 28.6122 108.416 28.6122C107.655 28.6122 106.952 28.5418 106.294 28.4032C105.63 28.2499 104.992 28.0444 104.377 27.7801V34.9928H98.9126V9.76154C99.4016 9.61141 99.9638 9.4755 100.602 9.3388C101.234 9.20645 101.906 9.09266 102.604 8.99429C103.295 8.89472 104.009 8.8161 104.73 8.75882C105.452 8.69402 106.142 8.66992 106.797 8.66992C108.395 8.66992 109.814 8.89868 111.058 9.37554C112.306 9.84925 113.359 10.5173 114.216 11.3814C115.074 12.2356 115.725 13.2908 116.172 14.5314C116.632 15.764 116.859 17.1516 116.859 18.6766Z"
        fill="#0033A0" />
    <mask id="mask1_1204_18147" style="mask-type:luminance" maskUnits="userSpaceOnUse" x="0" y="0"
        width="176" height="57">
        <path fill-rule="evenodd" clip-rule="evenodd"
            d="M0.154297 56.4346H175.999V0H0.154297V56.4346Z" fill="white" />
    </mask>
    <g mask="url(#mask1_1204_18147)">
        <path fill-rule="evenodd" clip-rule="evenodd"
            d="M121.08 28.2499H126.543V9.1014H121.08V28.2499ZM127.06 3.57315C127.06 4.56718 126.728 5.34984 126.083 5.91758C125.434 6.48927 124.673 6.77017 123.786 6.77017C122.906 6.77017 122.147 6.48927 121.493 5.91758C120.845 5.34984 120.522 4.56718 120.522 3.57315C120.522 2.57714 120.845 1.78856 121.493 1.22161C122.147 0.649136 122.906 0.362305 123.786 0.362305C124.673 0.362305 125.434 0.649136 126.083 1.22161C126.728 1.78856 127.06 2.57714 127.06 3.57315Z"
            fill="#0033A0" />
        <path fill-rule="evenodd" clip-rule="evenodd"
            d="M131.492 4.33291L136.962 3.45898V9.10236H143.529V13.6178H136.962V20.3555C136.962 21.491 137.168 22.4036 137.568 23.086C137.968 23.7635 138.781 24.108 140.007 24.108C140.595 24.108 141.196 24.0468 141.825 23.9425C142.446 23.8319 143.015 23.6794 143.529 23.4905L144.298 27.7065C143.636 27.9735 142.905 28.2035 142.096 28.4042C141.29 28.5938 140.299 28.6938 139.124 28.6938C137.634 28.6938 136.397 28.4899 135.418 28.0861C134.441 27.6871 133.655 27.1269 133.07 26.4145C132.486 25.6975 132.073 24.831 131.837 23.8157C131.612 22.7857 131.492 21.6629 131.492 20.4274V4.33291Z"
            fill="#0033A0" />
        <path fill-rule="evenodd" clip-rule="evenodd"
            d="M154.606 24.4678C155.148 24.4678 155.653 24.4543 156.146 24.4295C156.639 24.4057 157.026 24.3773 157.326 24.318V20.2107C157.107 20.1594 156.776 20.1096 156.333 20.0594C155.89 20.0152 155.492 19.9848 155.122 19.9848C154.606 19.9848 154.121 20.0152 153.671 20.0827C153.216 20.1408 152.816 20.2554 152.476 20.4269C152.134 20.5975 151.867 20.8275 151.677 21.1175C151.476 21.4138 151.384 21.7753 151.384 22.2071C151.384 23.0573 151.662 23.6503 152.245 23.9739C152.816 24.301 153.606 24.4678 154.606 24.4678ZM154.167 8.59033C155.785 8.59033 157.128 8.77484 158.197 9.1395C159.277 9.50653 160.142 10.0213 160.788 10.7028C161.436 11.3887 161.897 12.2133 162.158 13.1776C162.427 14.1551 162.57 15.2313 162.57 16.4256V27.7065C161.792 27.8748 160.7 28.0778 159.295 28.3078C157.913 28.5409 156.218 28.6551 154.243 28.6551C152.998 28.6551 151.859 28.5429 150.842 28.324C149.83 28.1146 148.953 27.7511 148.225 27.2517C147.49 26.7575 146.931 26.1044 146.541 25.3051C146.141 24.5035 145.952 23.5202 145.952 22.3578C145.952 21.2381 146.175 20.2935 146.621 19.5148C147.082 18.7432 147.682 18.1245 148.442 17.6539C149.197 17.1953 150.068 16.8685 151.048 16.6591C152.024 16.4549 153.044 16.3553 154.089 16.3553C154.808 16.3553 155.436 16.3877 155.98 16.443C156.536 16.4967 156.984 16.5817 157.326 16.6828V16.1665C157.326 15.2439 157.043 14.5039 156.478 13.9413C155.918 13.3914 154.933 13.1081 153.541 13.1081C152.611 13.1081 151.696 13.1777 150.792 13.3096C149.883 13.4428 149.101 13.6296 148.442 13.8698L147.747 9.50653C148.063 9.40934 148.459 9.30583 148.936 9.19995C149.417 9.08656 149.936 8.98581 150.499 8.89968C151.064 8.81711 151.652 8.74639 152.281 8.6891C152.902 8.62312 153.535 8.59033 154.167 8.59033Z"
            fill="#0033A0" />
        <path fill-rule="evenodd" clip-rule="evenodd"
            d="M175.23 28.6132C173.634 28.5938 172.344 28.4235 171.358 28.1146C170.366 27.7945 169.59 27.3501 169.009 26.7744C168.432 26.2059 168.043 25.522 167.839 24.7014C167.63 23.8899 167.529 22.9797 167.529 21.9572V0.872345L172.993 0V20.8585C172.993 21.3488 173.026 21.7786 173.098 22.1725C173.17 22.5609 173.318 22.8955 173.524 23.1551C173.728 23.4225 174.027 23.6454 174.425 23.8157C174.809 23.9788 175.334 24.0922 175.999 24.1432L175.23 28.6132Z"
            fill="#0033A0" />
        <path fill-rule="evenodd" clip-rule="evenodd"
            d="M7.90113 11.3151L3.86402 22.5773H11.9339L7.90113 11.3151ZM14.0761 28.5191L12.3958 23.8682H3.40103L1.72192 28.5191H0.154297L7.24901 9.38281H8.55025L15.6438 28.5191H14.0761Z"
            fill="#0033A0" />
        <path fill-rule="evenodd" clip-rule="evenodd"
            d="M20.4991 10.6684V18.5448H29.2203V19.8359H20.4991V28.5191H19.0386V9.38281H30.735V10.6684H20.4991Z"
            fill="#0033A0" />
        <path fill-rule="evenodd" clip-rule="evenodd"
            d="M41.553 10.6686H36.1111V19.1127H41.553C44.2064 19.1127 46.0742 17.7694 46.0742 14.8912C46.0742 12.015 44.2064 10.6686 41.553 10.6686ZM41.714 20.3981H36.1112V28.5191H34.6436V9.38281H41.714C45.0463 9.38281 47.5377 11.3969 47.5377 14.8911C47.5377 18.3848 45.0463 20.3981 41.714 20.3981Z"
            fill="#0033A0" />
    </g>
</svg>